<?xml version="1.0" encoding="UTF-8" standalone="no"?>
<!-- Created with Inkscape (http://www.inkscape.org/) -->

<svg
   xmlns:dc="http://purl.org/dc/elements/1.1/"
   xmlns:cc="http://creativecommons.org/ns#"
   xmlns:rdf="http://www.w3.org/1999/02/22-rdf-syntax-ns#"
   xmlns:svg="http://www.w3.org/2000/svg"
   xmlns="http://www.w3.org/2000/svg"
   xmlns:sodipodi="http://sodipodi.sourceforge.net/DTD/sodipodi-0.dtd"
   xmlns:inkscape="http://www.inkscape.org/namespaces/inkscape"
   width="744.09448819"
   height="1052.3622047"
   id="svg2"
   version="1.1"
   inkscape:version="0.48.4 r9939"
   sodipodi:docname="wedding_bow_tie.svg">
  <defs
     id="defs4">
    <filter
       inkscape:collect="always"
       id="filter3947"
       x="-0.072897007"
       width="1.145794"
       y="-0.23514138"
       height="1.4702828">
      <feGaussianBlur
         inkscape:collect="always"
         stdDeviation="10.777313"
         id="feGaussianBlur3949" />
    </filter>
    <filter
       inkscape:collect="always"
       id="filter3951"
       x="-0.077313216"
       width="1.1546264"
       y="-0.23514138"
       height="1.4702828">
      <feGaussianBlur
         inkscape:collect="always"
         stdDeviation="10.777313"
         id="feGaussianBlur3953" />
    </filter>
  </defs>
  <sodipodi:namedview
     id="base"
     pagecolor="#ffffff"
     bordercolor="#666666"
     borderopacity="1.0"
     inkscape:pageopacity="0.0"
     inkscape:pageshadow="2"
     inkscape:zoom="0.24748737"
     inkscape:cx="1204.6197"
     inkscape:cy="44.086411"
     inkscape:document-units="px"
     inkscape:current-layer="layer1"
     showgrid="false"
     inkscape:window-width="1366"
     inkscape:window-height="705"
     inkscape:window-x="-8"
     inkscape:window-y="-8"
     inkscape:window-maximized="1" />
  <metadata
     id="metadata7">
    <rdf:RDF>
      <cc:Work
         rdf:about="">
        <dc:format>image/svg+xml</dc:format>
        <dc:type
           rdf:resource="http://purl.org/dc/dcmitype/StillImage" />
        <dc:title></dc:title>
      </cc:Work>
    </rdf:RDF>
  </metadata>
  <g
     inkscape:label="Layer 1"
     inkscape:groupmode="layer"
     id="layer1">
    <g
       id="g4044"
       style="fill:#9bf2ff;fill-opacity:1">
      <path
         sodipodi:nodetypes="csczcsc"
         inkscape:connector-curvature="0"
         id="path3764"
         d="m 273.62219,621.77044 c 0,0 -55.33926,38.82291 -107.90791,63.44889 -75.294139,35.27182 -168.5714229,50 -168.5714229,50 0,0 -50.5409831,-88.36337 -51.4285711,-171.42858 -0.887587,-83.06521 47.1428568,-189.99999 47.1428568,-189.99999 0,0 98.0888122,6.15073 165.7142872,34.28571 70.85904,29.48027 114.28571,77.14285 114.28571,77.14285"
         style="fill:#9bf2ff;fill-opacity:1;stroke:#000000;stroke-width:8;stroke-linecap:butt;stroke-linejoin:miter;stroke-miterlimit:4;stroke-opacity:1;stroke-dasharray:none" />
      <path
         sodipodi:nodetypes="csczcsc"
         inkscape:connector-curvature="0"
         id="path3764-8"
         d="m 395.70213,621.77044 c 0,0 55.33926,38.82291 107.90791,63.44889 75.29414,35.27182 168.57142,50 168.57142,50 0,0 50.54099,-88.36337 51.42857,-171.42858 0.88759,-83.06521 -47.14285,-189.99999 -47.14285,-189.99999 0,0 -98.08882,6.15073 -165.71429,34.28571 -70.85904,29.48027 -114.28571,77.14285 -114.28571,77.14285"
         style="fill:#9bf2ff;fill-opacity:1;stroke:#000000;stroke-width:8;stroke-linecap:butt;stroke-linejoin:miter;stroke-miterlimit:4;stroke-opacity:1;stroke-dasharray:none" />
      <path
         d="m 275.5714,628.07647 c 0,0 39.90124,-5.80063 60,-6 19.10753,-0.18954 57.14285,4.57143 57.14285,4.57143 0,0 15.12098,-43.1934 15.14286,-78.57143 0.0224,-36.27275 -13.71429,-72.85714 -13.71429,-72.85714 m 0.14289,0 c 0,0 -39.90124,5.80063 -60,6 -19.10753,0.18954 -57.14285,-4.57143 -57.14285,-4.57143 0,0 -15.12098,43.1934 -15.14286,78.57143 -0.0224,36.27275 13.71429,72.85714 13.71429,72.85714"
         style="fill:#9bf2ff;fill-opacity:1;stroke:#000000;stroke-width:8;stroke-linecap:butt;stroke-linejoin:miter;stroke-miterlimit:4;stroke-opacity:1;stroke-dasharray:none"
         id="path3766-1"
         inkscape:connector-curvature="0" />
    </g>
    <rect
       style="color:#000000;fill:#9bf2ff;stroke:#000000;stroke-width:8;stroke-linecap:butt;stroke-linejoin:miter;stroke-miterlimit:4;stroke-opacity:1;stroke-dasharray:none;stroke-dashoffset:0;marker:none;visibility:visible;display:inline;overflow:visible;enable-background:accumulate;fill-opacity:1"
       id="rect3973"
       width="1583.9192"
       height="101.01525"
       x="517.19812"
       y="1157.4181" />
    <rect
       style="color:#000000;fill:#9bf2ff;stroke:#000000;stroke-width:8;stroke-linecap:butt;stroke-linejoin:miter;stroke-miterlimit:4;stroke-opacity:1;stroke-dasharray:none;stroke-dashoffset:0;marker:none;visibility:visible;display:inline;overflow:visible;enable-background:accumulate;fill-opacity:1"
       id="rect3973-5-1"
       width="834.49792"
       height="103.1475"
       x="516.13202"
       y="1358.3519" />
  </g>
</svg>
